<?xml version="1.0" encoding="UTF-8" standalone="no"?>
<!-- Generator: Adobe Illustrator 16.0.0, SVG Export Plug-In . SVG Version: 6.00 Build 0)  -->

<svg
   xmlns:dc="http://purl.org/dc/elements/1.1/"
   xmlns:cc="http://creativecommons.org/ns#"
   xmlns:rdf="http://www.w3.org/1999/02/22-rdf-syntax-ns#"
   xmlns:svg="http://www.w3.org/2000/svg"
   xmlns="http://www.w3.org/2000/svg"
   xmlns:sodipodi="http://sodipodi.sourceforge.net/DTD/sodipodi-0.dtd"
   xmlns:inkscape="http://www.inkscape.org/namespaces/inkscape"
   version="1.1"
   id="Layer_1"
   x="0px"
   y="0px"
   width="16px"
   height="14px"
   viewBox="0 0 16 14"
   enable-background="new 0 0 16 14"
   xml:space="preserve"
   inkscape:version="0.91 r13725"
   sodipodi:docname="nosmile.svg"><metadata
     id="metadata13"><rdf:RDF><cc:Work
         rdf:about=""><dc:format>image/svg+xml</dc:format><dc:type
           rdf:resource="http://purl.org/dc/dcmitype/StillImage" /></cc:Work></rdf:RDF></metadata><defs
     id="defs11" /><sodipodi:namedview
     pagecolor="#ffffff"
     bordercolor="#666666"
     borderopacity="1"
     objecttolerance="10"
     gridtolerance="10"
     guidetolerance="10"
     inkscape:pageopacity="0"
     inkscape:pageshadow="2"
     inkscape:window-width="1320"
     inkscape:window-height="714"
     id="namedview9"
     showgrid="false"
     inkscape:zoom="16.857143"
     inkscape:cx="1.1779661"
     inkscape:cy="7"
     inkscape:window-x="0"
     inkscape:window-y="0"
     inkscape:window-maximized="0"
     inkscape:current-layer="Layer_1" /><path
     fill-rule="evenodd"
     clip-rule="evenodd"
     fill="none"
     d="M2,0c1.104,0,2,0.896,2,2S3.104,4,2,4S0,3.104,0,2S0.896,0,2,0z"
     id="path3"
     style="fill:#ffffff" /><path
     fill-rule="evenodd"
     clip-rule="evenodd"
     fill="none"
     d="M14,0c1.104,0,2,0.896,2,2s-0.896,2-2,2s-2-0.896-2-2S12.896,0,14,0z"
     id="path5"
     style="fill:#ffffff" /><path
     fill-rule="evenodd"
     clip-rule="evenodd"
     fill="none"
     d="M2.775,14.011C3.799,12.202,5.742,10.963,8,10.963  c2.253,0,4.193,1.234,5.218,3.037l1.771-0.962C13.623,10.63,11.007,9,8,9c-3.009,0-5.627,1.632-6.993,4.043L2.775,14.011z"
     id="path7"
     style="fill:#ffffff" /></svg>