<svg xmlns="http://www.w3.org/2000/svg" xmlns:xlink="http://www.w3.org/1999/xlink" preserveAspectRatio="xMidYMid" width="159" height="79" viewBox="0 0 159 79">
  <defs>
    <style>

      .cls-2 {
        fill: #e1e1e1;
      }
    </style>
  </defs>
  <path d="M155.500,79.000 C153.567,79.000 152.000,77.433 152.000,75.500 C152.000,73.567 153.567,72.000 155.500,72.000 C157.433,72.000 159.000,73.567 159.000,75.500 C159.000,77.433 157.433,79.000 155.500,79.000 ZM155.500,74.000 C154.672,74.000 154.000,74.672 154.000,75.500 C154.000,76.328 154.672,77.000 155.500,77.000 C156.328,77.000 157.000,76.328 157.000,75.500 C157.000,74.672 156.328,74.000 155.500,74.000 ZM4.000,76.000 C4.000,76.000 3.000,76.000 3.000,76.000 C3.000,76.000 3.000,75.000 3.000,75.000 C3.000,75.000 3.000,7.000 3.000,7.000 C3.000,7.000 3.500,7.000 3.500,7.000 C3.500,7.000 4.000,7.000 4.000,7.000 C4.000,7.000 4.000,75.000 4.000,75.000 C4.000,75.000 152.000,75.000 152.000,75.000 C152.000,75.000 152.000,75.500 152.000,75.500 C152.000,75.500 152.000,76.000 152.000,76.000 C152.000,76.000 4.000,76.000 4.000,76.000 ZM-0.000,3.500 C-0.000,1.567 1.567,-0.000 3.500,-0.000 C5.433,-0.000 7.000,1.567 7.000,3.500 C7.000,5.433 5.433,7.000 3.500,7.000 C1.567,7.000 -0.000,5.433 -0.000,3.500 ZM3.500,5.000 C4.328,5.000 5.000,4.328 5.000,3.500 C5.000,2.672 4.328,2.000 3.500,2.000 C2.672,2.000 2.000,2.672 2.000,3.500 C2.000,4.328 2.672,5.000 3.500,5.000 Z" id="path-1" class="cls-2" fill-rule="evenodd"/>
</svg>
